<svg width="551" height="551" viewBox="0 0 551 551" fill="none" xmlns="http://www.w3.org/2000/svg">
<path d="M275.27 157.26C262.77 157.26 252.64 144.75 252.64 132.25V25.01C252.64 12.51 262.77 0 275.27 0C287.77 0 297.9 12.51 297.9 25.01V132.24C297.9 144.74 287.77 157.25 275.27 157.25V157.26Z" fill="#FF3D23"/>
<path d="M191.95 191.77C183.11 200.61 167.1 198.92 158.26 190.09L82.4402 114.27C73.6002 105.43 71.9201 89.4195 80.7601 80.5795C89.6002 71.7395 105.61 73.4295 114.45 82.2595L190.27 158.08C199.11 166.92 200.79 182.93 191.95 191.77Z" fill="#FFD357"/>
<path d="M157.44 275.09C157.44 287.59 144.93 297.72 132.43 297.72H25.1999C12.6999 297.72 0.189941 287.59 0.189941 275.09C0.189941 262.59 12.6999 252.46 25.1999 252.46H132.43C144.93 252.46 157.44 262.59 157.44 275.09Z" fill="#B4DC00"/>
<path d="M191.95 358.41C200.79 367.25 199.1 383.26 190.27 392.1L114.45 467.92C105.61 476.76 89.5997 478.44 80.7597 469.6C71.9197 460.76 73.6097 444.75 82.4397 435.91L158.26 360.09C167.1 351.25 183.11 349.57 191.95 358.41Z" fill="#41BEFF"/>
<path d="M275.27 392.93C287.77 392.93 297.9 405.44 297.9 417.94V525.17C297.9 537.67 287.77 550.18 275.27 550.18C262.77 550.18 252.64 537.67 252.64 525.17V417.94C252.64 405.44 262.77 392.93 275.27 392.93Z" fill="#006EFA"/>
<path d="M358.59 358.41C367.43 349.57 383.44 351.26 392.28 360.09L468.1 435.91C476.94 444.75 478.62 460.76 469.78 469.6C460.94 478.44 444.93 476.75 436.09 467.92L360.27 392.1C351.43 383.26 349.75 367.25 358.59 358.41Z" fill="#FFAA00"/>
<path d="M393.11 275.09C393.11 262.59 405.62 252.46 418.12 252.46H525.35C537.85 252.46 550.36 262.59 550.36 275.09C550.36 287.59 537.85 297.72 525.35 297.72H418.12C405.62 297.72 393.11 287.59 393.11 275.09Z" fill="#00A078"/>
<path d="M358.59 191.77C349.75 182.93 351.44 166.92 360.27 158.08L436.09 82.26C444.93 73.42 460.94 71.74 469.78 80.58C478.62 89.42 476.93 105.43 468.1 114.27L392.28 190.09C383.44 198.93 367.43 200.61 358.59 191.77Z" fill="#5BC686"/>
<path d="M284.864 310.163C304.247 304.871 315.67 284.868 310.379 265.486C305.087 246.103 285.084 234.68 265.702 239.971C246.319 245.263 234.896 265.266 240.187 284.648C245.479 304.031 265.481 315.454 284.864 310.163Z" fill="#282828"/>
</svg>
